<!-- icon666.com - MILLIONS vector ICONS FREE --><svg fill="none" viewBox="0 0 24 24" xmlns="http://www.w3.org/2000/svg"><g clip-rule="evenodd" fill="rgb(0,0,0)" fill-rule="evenodd"><path d="m12 8.5c-1.933 0-3.5 1.567-3.5 3.5s1.567 3.5 3.5 3.5 3.5-1.567 3.5-3.5-1.567-3.5-3.5-3.5zm-4.5 3.5c0-2.48528 2.01472-4.5 4.5-4.5 2.4853 0 4.5 2.01472 4.5 4.5 0 2.4853-2.0147 4.5-4.5 4.5-2.48528 0-4.5-2.0147-4.5-4.5z"></path><path d="m19.5 12c0-.2761.2239-.5.5-.5h1c.2761 0 .5.2239.5.5s-.2239.5-.5.5h-1c-.2761 0-.5-.2239-.5-.5z"></path><path d="m2.5 12c0-.2761.22386-.5.5-.5h1c.27614 0 .5.2239.5.5s-.22386.5-.5.5h-1c-.27614 0-.5-.2239-.5-.5z"></path><path d="m12 19.5c.2761 0 .5.2239.5.5v1c0 .2761-.2239.5-.5.5s-.5-.2239-.5-.5v-1c0-.2761.2239-.5.5-.5z"></path><path d="m12 2.5c.2761 0 .5.22386.5.5v1c0 .27614-.2239.5-.5.5s-.5-.22386-.5-.5v-1c0-.27614.2239-.5.5-.5z"></path><path d="m17.3033 17.3033c.1953-.1952.5119-.1952.7071 0l.7071.7071c.1953.1953.1953.5119 0 .7071-.1952.1953-.5118.1953-.7071 0l-.7071-.7071c-.1953-.1952-.1953-.5118 0-.7071z"></path><path d="m5.28249 5.28251c.19527-.19526.51185-.19526.70711 0l.70711.70711c.19526.19526.19526.51184 0 .7071s-.51185.19526-.70711 0l-.70711-.7071c-.19526-.19527-.19526-.51185 0-.70711z"></path><path d="m6.69671 17.3033c.19526.1953.19526.5119 0 .7071l-.70711.7071c-.19526.1953-.51184.1953-.7071 0-.19527-.1952-.19527-.5118 0-.7071l.7071-.7071c.19526-.1953.51185-.1953.70711 0z"></path><path d="m18.7175 5.28249c.1953.19527.1953.51185 0 .70711l-.7071.70711c-.1952.19526-.5118.19526-.7071 0s-.1953-.51185 0-.70711l.7071-.70711c.1953-.19526.5119-.19526.7071 0z"></path></g></svg>